<svg width="24" height="24" viewBox="0 0 65 65" fill="none" xmlns="http://www.w3.org/2000/svg">
<rect width="65" height="65" rx="20" fill="#1A307F"/>
<path d="M37.3794 49.8566C37.127 49.7676 36.7559 49.5894 36.5778 49.4558C36.0879 49.0995 21.5098 33.9277 21.2575 33.512C20.9457 32.9924 20.9309 32.6807 21.1387 31.9829L21.3168 31.3891L28.7543 23.5954C32.8516 19.3051 36.3402 15.6977 36.5332 15.5641C37.127 15.1187 37.5872 15 38.5522 15H39.3984L39.9922 15.2969C41.9518 16.2767 42.6643 18.7707 41.4916 20.6115C41.3728 20.8045 39.0124 23.3133 36.2809 26.1784C31.8718 30.7805 31.2632 31.4337 31.1147 31.79C30.892 32.2947 30.8772 32.9776 31.0553 33.3339C31.1147 33.4675 33.4454 35.9318 36.2215 38.8118C38.9975 41.6917 41.3579 44.2154 41.4916 44.4084C42.7534 46.3828 41.8033 49.1441 39.5914 49.8715C38.953 50.0942 38.0029 50.0793 37.3794 49.8566Z" fill="white"/>
</svg>