<svg width="236" height="238" viewBox="0 0 236 238" fill="none" xmlns="http://www.w3.org/2000/svg">
<path d="M223.905 5.1C221.305 7.9 218.305 10.1 217.505 10.1C214.605 10.1 213.105 13.3 215.005 15.8C216.405 17.8 217.105 17.9 218.505 16.7C219.505 15.8 223.905 14.8 228.205 14.4C232.405 13.9 235.905 13.3 235.905 13C235.905 12.2 229.605 0 229.205 0C229.005 0 226.605 2.3 223.905 5.1Z" fill="black"/>
<path d="M177.205 11.5C171.105 16.8 169.505 23.4 172.005 31.9C174.905 41.9 183.505 49.2 192.205 49.2C199.805 49.2 202.205 51.1 208.605 61.8L214.805 72L210.505 76.4C202.505 84.6 183.005 92.2 159.505 96.2C150.205 97.8 149.005 97.7 145.005 95.6C137.705 91.8 131.405 92.6 118.905 99.1C103.105 107.3 81.5046 121.9 71.6046 131C61.2046 140.6 58.5046 147.2 56.6046 166.3C55.8046 173.6 54.8046 182.5 54.5046 185.9L53.6046 192L41.0046 200C22.6046 211.6 7.90456 222.8 3.60456 228.8C-4.69544 240.3 0.304562 240 29.5046 227.3C42.0046 221.7 55.5046 216.1 59.3046 214.4C63.1046 212.9 67.8046 210.5 69.5046 209.4C74.2046 206.1 77.7046 196.9 81.4046 179C83.2046 170.5 84.8046 163.3 85.2046 163C86.3046 162 97.2046 167.7 105.505 173.6C109.805 176.6 122.205 187.7 133.105 198.2C159.205 223.2 172.205 232.3 181.805 232.3C185.305 232.3 184.805 230.8 178.905 223.1C175.905 219.3 166.905 207.7 159.005 197.5C141.705 175 127.205 159.6 116.105 151.8C111.605 148.6 107.405 145.6 106.905 145.2C105.505 143.9 111.705 140.2 125.205 134L136.205 129L140.405 136.8C149.505 153.7 156.305 156.5 169.905 148.3C182.905 140.6 193.105 128.5 193.105 121C193.105 116.3 191.305 116.6 183.105 122C176.805 126.3 164.005 132.6 161.605 132.6C161.105 132.6 159.305 129.7 157.705 126.2C154.405 119.4 155.105 117.5 161.005 117.5C165.505 117.5 185.605 111.2 193.905 107.3C203.505 102.8 213.305 95.1 218.105 88.5C220.705 84.8 222.005 84 223.105 85.1C224.105 86.1 225.005 86 226.605 84.5C228.505 82.5 228.505 82.1 226.605 79.2C225.305 77.4 224.505 74.2 224.505 71.9C224.505 66.3 222.605 63.4 220.605 65.5C219.305 66.8 217.705 65.1 212.905 57.9C206.205 47.9 206.105 47.3 208.705 40C211.405 32.7 211.005 28 207.305 20.7C201.105 7.80001 186.405 3.4 177.205 11.5ZM195.405 12C204.105 16.4 209.505 27.9 206.905 36C200.805 54.4 175.805 47.2 174.305 26.8C173.905 20.7 174.305 19 176.605 16.1C181.205 10.1 188.705 8.50001 195.405 12Z" fill="black"/>
<path d="M148.805 58.9999C147.805 59.3999 145.505 60.8999 144.005 62.3999C131.405 73.7999 138.405 92.1999 155.405 92.1999C172.305 92.1999 178.105 69.4999 163.605 60.5999C159.805 58.1999 152.805 57.3999 148.805 58.9999Z" fill="black"/>
</svg>
