<!--?xml version="1.0" encoding="utf-8"?-->
<!-- Svg Vector Icons : http://www.onlinewebfonts.com/icon -->

<svg version="1.1" xmlns="http://www.w3.org/2000/svg" xmlns:xlink="http://www.w3.org/1999/xlink" x="0px" y="0px" viewBox="0 0 256 256" enable-background="new 0 0 256 256" xml:space="preserve">
<metadata> Svg Vector Icons : http://www.onlinewebfonts.com/icon </metadata>
<g><g><g><path fill="#ffffff" data-title="Layer 0" xs="0" d="M10,106.1v66.6h33.2h33.2v-11.1v-11.1H65H53.5v-4.3c0-3.8-0.2-4.6-1.5-7.3c-2-4.2-4.6-7-8.8-9c-3.1-1.6-3.8-1.7-7.3-1.8h-3.9v-22.3V83.5l2.9,0.1c2.1,0.1,3.7-0.1,5.9-0.8c5.3-1.8,8.8-4.9,11.2-10.1c1.2-2.6,1.4-3.5,1.4-7v-4.1h74.2h74.2v3.8c0,4.5,1,7.6,3.5,10.8c3.7,4.9,9.5,7.7,15.4,7.4l3-0.1v18.5v18.6h11.1h11.1V80.1V39.5H128H10V106.1z"/><path fill="#ffffff" data-title="Layer 1" xs="1" d="M126.1,76.7c-12.4,0.9-22.7,9.1-26.3,20.6c-6.9,22.4,14.2,43.5,36.6,36.6c9.8-3,17.9-11.7,20-21.6c0.7-3.5,0.6-10.5-0.2-13.7c-2.5-10-11.3-18.8-21.2-21.2C132.1,76.8,128.7,76.5,126.1,76.7z"/><path fill="#ffffff" data-title="Layer 2" xs="2" d="M173.8,136.8c-1.9,1.1-2,1.7-2.1,10.4c0,8.3,0,8.4,1.2,9.5l1.1,1.2h34.7h34.7l1-1.1c1-1,1-1.5,1-9.6c0-7.7-0.1-8.7-0.9-9.6l-0.9-1.1l-34.5-0.1C183.8,136.3,174.5,136.4,173.8,136.8z"/><path fill="#ffffff" data-title="Layer 3" xs="3" d="M92,167c-1.1,1.2-1.1,1.3-1.1,9.7v8.5l1.3,1.1l1.3,1.1h34.1c24,0,34.4-0.1,35.2-0.5c1.9-0.8,2.2-2.3,2.2-10.4c0-7.9-0.4-9.9-2.1-10.5c-0.4-0.1-16.3-0.3-35.2-0.3H93.1L92,167z"/><path fill="#ffffff" data-title="Layer 4" xs="4" d="M173.3,166.9L172,168l-0.1,7.3c-0.2,8.2,0,10,1.3,11.3c0.8,0.8,1.8,0.9,35.6,0.9c33.5,0,34.8,0,35.8-0.9c1.1-0.9,1.1-1.1,1.2-9.4l0.1-8.6l-1.4-1.4l-1.3-1.4h-34.4h-34.3L173.3,166.9z"/><path fill="#ffffff" data-title="Layer 5" xs="5" d="M92,196c-1.1,1.2-1.1,1.3-1.1,9.7v8.5l1.3,1.1l1.3,1.1h34.1c24.3,0,34.4-0.1,35.2-0.5c1.9-0.9,2.2-2.4,2-11.2c-0.1-7.9-0.2-8.2-1.2-9c-1-0.8-2.3-0.9-35.7-0.9H93.1L92,196z"/><path fill="#ffffff" data-title="Layer 6" xs="6" d="M173.3,195.9L172,197l-0.1,7.3c-0.2,8.2,0,10,1.3,11.3c0.8,0.8,1.8,0.9,35.6,0.9c33.5,0,34.8,0,35.8-0.9c1.1-0.9,1.1-1.1,1.2-9.4l0.1-8.6l-1.4-1.4l-1.3-1.4h-34.4h-34.3L173.3,195.9z"/></g></g></g>
</svg>