<!--?xml version="1.0" encoding="utf-8"?-->
<!-- Svg Vector Icons : http://www.onlinewebfonts.com/icon -->

<svg version="1.1" xmlns="http://www.w3.org/2000/svg" xmlns:xlink="http://www.w3.org/1999/xlink" x="0px" y="0px" viewBox="0 0 256 256" enable-background="new 0 0 256 256" xml:space="preserve">
<metadata> Svg Vector Icons : http://www.onlinewebfonts.com/icon </metadata>
<g><g><g><path fill="#ffffff" data-title="Layer 0" xs="0" d="M28.2,28.3c-5.2,1.9-8.3,6.5-8.4,12.9l-0.1,3.9l62.6,0.1l62.5,0.1l8.8-5.1c4.8-2.8,10.9-6.2,13.4-7.7c2.6-1.4,5.5-3.1,6.4-3.7l1.7-1.2h-72.5C43.9,27.7,29.6,27.8,28.2,28.3z"/><path fill="#ffffff" data-title="Layer 1" xs="1" d="M103.9,75c-45,26-84.2,48.7-87.1,50.4c-4.1,2.4-5.3,3.3-6,4.8c-1.6,3.4-4.8-2.6,37,69.7C65,229.8,63,226.5,64.7,227.5c3.3,2,3.2,2,32.8-15c15-8.7,42.3-24.4,60.6-35c18.2-10.5,42.6-24.6,54.1-31.2c34.8-20.1,32.3-18.4,33.2-21c0.6-1.8,0.7-2.6,0.3-3.8c-0.9-2.9-51.8-90.5-53.6-92.2c-1.4-1.3-2-1.6-4-1.6C186,27.7,180.7,30.6,103.9,75z M188,39.5c1.9,1,2.6,1.9,5.7,7.3c1.9,3.4,12,20.8,22.3,38.7c20.6,35.6,20.1,34.6,17.7,38.1c-0.9,1.3-17.8,11.2-80.3,47.3c-43.5,25.2-80,46-81,46.2c-1.6,0.4-2.2,0.3-4.2-0.6c-2.3-1.2-2.3-1.2-24.6-39.8C24.3,143,21.4,137.8,21.4,136c0-3.3,1.5-4.8,8.4-8.8c5.5-3.1,26.9-15.5,124.2-71.7c15.7-9,29-16.6,29.5-16.7C185.2,38.4,185.9,38.5,188,39.5z"/><path fill="#ffffff" data-title="Layer 2" xs="2" d="M152.2,63.4c-12.9,7.4-48.5,28-86.1,49.7c-9.6,5.6-18,10.5-18.6,10.9c-1.3,0.9-1.4,2.1-0.5,7c1.2,6.6-1.2,14.6-6.1,20c-1.8,2.1-2.3,3-2.1,4c0.1,0.7,4.8,9.3,10.5,19.1c7.8,13.5,10.5,17.9,11.4,18c0.6,0.1,2.3,0,3.6-0.2c5.4-1.2,11.8-0.3,16.8,2.2c1.2,0.6,3.7,2.3,5.4,3.7c2.3,1.8,3.3,2.4,4.1,2.2c0.6-0.2,17.5-9.8,37.7-21.4c20.2-11.7,46.7-27,59-34c16.6-9.6,22.4-13.2,22.7-14.1c0.3-0.8,0.2-1.8-0.1-3c-0.3-1-0.6-3.8-0.5-6.2c0-6.7,2.1-11.9,6.6-16.9c1.5-1.7,1.9-2.5,1.8-3.5c-0.1-0.7-4.8-9.3-10.5-19.2c-7.8-13.5-10.5-17.9-11.4-18c-0.6-0.1-2.3,0-3.6,0.2c-7.3,1.6-16.2-0.6-21.2-5.3c-2.1-1.9-3.8-3-4.7-3C165.9,55.7,159.6,59.2,152.2,63.4z M184.8,84c3.6,1.6,7.3,5.5,8.7,9.4c1.5,3.9,1.2,9.6-0.7,13.3c-1.7,3.4-4.7,6.3-8.1,7.9c-2.3,1.1-3.4,1.3-6.9,1.3s-4.6-0.2-6.9-1.3c-5.9-2.8-9.3-7.9-9.7-14.5c-0.2-5,0.9-8.5,4.2-12C170.4,82.5,177.8,80.9,184.8,84z M130.1,96.3c17.1,6.7,29.5,28.2,26.3,45.9c-3,16.8-17.8,23.8-33.4,15.9c-18.9-9.5-29.2-35.6-20.7-52.5c1.4-2.8,5-6.8,7.4-8.3C115.1,94.1,123.3,93.7,130.1,96.3z M85,141.2c3.7,1.6,6.3,4,8.2,7.5c1.4,2.6,1.7,3.7,1.9,7c0.2,5.1-1,8.5-4.3,12.2c-6.7,7.4-17.9,7.4-24.6,0c-3.4-3.7-4.6-7.1-4.3-12.2c0.4-7.3,4.4-12.6,11.4-15.1C76.5,139.5,81.7,139.7,85,141.2z"/><path fill="#ffffff" data-title="Layer 3" xs="3" d="M173.8,90.1c-4.1,1.9-5.9,4.6-5.9,9c0,9.8,11.8,13.7,17.9,6c1.3-1.6,1.5-2.4,1.7-5.2c0.2-3.9-0.9-6.6-3.4-8.6C180.7,89,177.4,88.5,173.8,90.1z"/><path fill="#ffffff" data-title="Layer 4" xs="4" d="M112.7,102.8c-1.1,1.2-1,1.7,0.2,4.1l1,2l-2.3,2.4c-2.8,3-3.8,5.3-3.8,8.8c0,4.9,3,9.9,7.3,11.9c2.2,1,7,1.2,10.2,0.5c1.8-0.4,1.9-0.4,3,1.3c2.2,3.4,5.1,8.7,5,8.9c-0.6,0.6-3.9-0.7-6-2.4c-3-2.4-3.9-2.7-5.9-2c-2,0.7-3.1,2.4-3.1,4.7c0,1.6,0.4,2.2,2.4,4.2c3.7,3.6,9.1,4.8,14.5,3.2l2.3-0.7l1.4,2c1.5,2.3,3.1,2.9,4.6,1.5c1.2-1.1,1.2-1.7-0.1-4.2l-1-2l2.3-2.4c3.1-3.3,4.2-5.8,4.2-10c0-5.7-2.7-10-7.6-12.3c-2.9-1.3-6-1.5-10.2-0.5c-3.2,0.8-2.6,1.3-6.1-4.9c-1.1-1.9-1.8-3.5-1.5-3.6c0.9-0.3,2.8,0.4,4.6,1.9c2.4,1.9,4.2,1.9,6.2,0.1c5.6-5-4.3-12.4-12.9-9.8l-2.4,0.7l-1.4-2C115.8,101.8,114,101.3,112.7,102.8z M122.2,123.3c0,0.1-0.7,0.2-1.7,0.2c-1.3,0-2-0.3-3-1.5c-1.5-1.7-1.6-2.9-0.5-4.9l0.8-1.5l2.2,3.7C121.2,121.3,122.2,123.1,122.2,123.3z M137.6,131c2.8,1.3,3.6,6.2,1.5,8.4c-0.9,0.9-1,0.8-3.5-3.7c-1.4-2.5-2.6-4.7-2.6-4.9C133,130.2,136.3,130.4,137.6,131z"/><path fill="#ffffff" data-title="Layer 5" xs="5" d="M74.2,147.6c-5.4,2.5-7.4,9.3-4.2,14.5c3.9,6.2,13.4,6,17.2-0.4c0.9-1.7,1.1-2.6,1-5.5c-0.1-3-0.3-3.7-1.7-5.4C83.5,146.9,78.4,145.7,74.2,147.6z"/><path fill="#ffffff" data-title="Layer 6" xs="6" d="M19.7,49.1c-0.2,0.1-0.3,6.1-0.3,13.3v12.9H56h36.6l22.3-12.8c12.2-7,22.5-13,22.7-13.3c0.3-0.2-22-0.4-58.5-0.4C46.6,48.8,19.9,48.9,19.7,49.1z"/><path fill="#ffffff" data-title="Layer 7" xs="7" d="M19.4,98.4v19.2l1.1-0.6c0.6-0.3,9.7-5.6,20.3-11.8c10.6-6.1,24.5-14.2,31-18c6.5-3.7,12.2-7.1,12.8-7.5c0.8-0.5-4.4-0.6-32.1-0.6h-33V98.4z"/></g></g></g>
</svg>