<svg width="256" height="256" viewBox="0 0 256 256" fill="none" xmlns="http://www.w3.org/2000/svg">
<path d="M194.6 18.0998C185.4 24.2998 182.8 36.7998 188.8 45.8998C199.5 62.1998 225.4 54.2998 225.4 34.7998C225.4 27.8998 221.2 20.4998 215.5 17.5998C209.4 14.2998 199.8 14.5998 194.6 18.0998Z" fill="black"/>
<path d="M130.6 38.2997C110.8 41.6997 89.3999 56.8997 76.3999 76.9997C66.6999 91.9997 68.2999 95.6997 80.7999 87.1997C105.2 70.2997 112.8 65.7997 119.8 63.2997C127.6 60.6997 141.6 58.5997 141.6 60.0997C141.6 60.4997 138.3 65.2997 134.2 70.7997C121 88.4997 115.6 98.8997 107.2 122.4C92.3999 163.5 77.2999 183.2 43.5999 205.5C24.7999 217.9 17.4999 223.9 13.2999 230.5C6.89992 240.7 9.49992 243.3 20.5999 237.6C23.7999 236 35.0999 231.1 45.6999 226.6C56.3999 222.2 69.4999 216 74.7999 212.8C94.5999 201 112.2 182.9 125.7 160.1C129.3 154.2 132.6 149.4 133.2 149.4C134.8 149.4 143.9 155.3 149.8 160.1C155 164.2 155 164.4 153.4 167.7C152.4 169.5 147.1 177.3 141.7 185.1C125.1 208.8 118.2 225 121.7 232.6C123.7 236.9 126.1 236.2 129.6 230.3C131.3 227.3 141.3 216 151.6 205.3C175.2 180.7 179.1 175 179.1 164.8C179.1 160 178.2 155.7 176.8 152.6C173.5 146.1 164.5 137.3 153.6 130.3C148.7 127 144.4 124.1 144.1 124C142.5 122.8 166 90.1997 168.5 90.1997C169.1 90.1997 170.2 91.8997 171.1 93.8997C173.3 99.2997 182.7 107 189.8 109.4C198.5 112.2 212.2 111.2 223.6 106.8C233.3 102.9 244.4 95.9997 245.5 92.9997C247 89.0997 244.4 88.5997 230.6 89.9997C195.9 93.5997 190.4 90.6997 188.2 67.1997C186.8 52.6997 184.5 47.4997 177.4 43.3997C169.3 39.1997 143.4 36.1997 130.6 38.2997Z" fill="black"/>
<path d="M167.4 198C162.8 201 157.7 209.9 157.7 214.9C157.7 219.9 162.9 228.8 167.4 231.8C173.2 235.7 182.8 235.7 188.5 231.8C195.5 227.1 197.7 223.1 197.7 214.9C197.7 206.7 195.5 202.7 188.5 197.9C182.8 194 173.2 194 167.4 198Z" fill="black"/>
</svg>
